<mxfile host="app.diagrams.net" agent="Mozilla/5.0 (Macintosh; Intel Mac OS X 10_15_7) AppleWebKit/605.1.15 (KHTML, like Gecko) Version/17.6 Safari/605.1.15" version="24.7.14">
  <diagram name="Page-1" id="HfTJeh2-XO4XwnW64IjF">
    <mxGraphModel dx="1037" dy="717" grid="1" gridSize="10" guides="1" tooltips="1" connect="1" arrows="1" fold="1" page="1" pageScale="1" pageWidth="850" pageHeight="1100" math="0" shadow="0">
      <root>
        <mxCell id="0" />
        <mxCell id="1" parent="0" />
        <mxCell id="4nz0dGqZHAHuWgcf-8ju-11" value="" style="rounded=1;whiteSpace=wrap;html=1;fillColor=#f9f7ed;strokeColor=#36393d;" vertex="1" parent="1">
          <mxGeometry x="160" y="60" width="320" height="350" as="geometry" />
        </mxCell>
        <mxCell id="4nz0dGqZHAHuWgcf-8ju-1" value="Target User Data&lt;div&gt;(History, Profile)&lt;/div&gt;" style="rounded=1;whiteSpace=wrap;html=1;fillColor=#dae8fc;strokeColor=#6c8ebf;" vertex="1" parent="1">
          <mxGeometry x="270" y="80" width="110" height="40" as="geometry" />
        </mxCell>
        <mxCell id="4nz0dGqZHAHuWgcf-8ju-2" value="Prompt" style="rounded=1;whiteSpace=wrap;html=1;fillColor=#dae8fc;strokeColor=#6c8ebf;" vertex="1" parent="1">
          <mxGeometry x="270" y="150" width="110" height="40" as="geometry" />
        </mxCell>
        <mxCell id="4nz0dGqZHAHuWgcf-8ju-3" value="" style="endArrow=classic;html=1;rounded=0;exitX=0.5;exitY=1;exitDx=0;exitDy=0;entryX=0.5;entryY=0;entryDx=0;entryDy=0;" edge="1" parent="1" source="4nz0dGqZHAHuWgcf-8ju-1" target="4nz0dGqZHAHuWgcf-8ju-2">
          <mxGeometry width="50" height="50" relative="1" as="geometry">
            <mxPoint x="400" y="400" as="sourcePoint" />
            <mxPoint x="450" y="350" as="targetPoint" />
          </mxGeometry>
        </mxCell>
        <mxCell id="4nz0dGqZHAHuWgcf-8ju-4" value="" style="endArrow=classic;html=1;rounded=0;exitX=0.5;exitY=1;exitDx=0;exitDy=0;entryX=0.5;entryY=0;entryDx=0;entryDy=0;" edge="1" parent="1" source="4nz0dGqZHAHuWgcf-8ju-2" target="4nz0dGqZHAHuWgcf-8ju-6">
          <mxGeometry width="50" height="50" relative="1" as="geometry">
            <mxPoint x="60" y="450" as="sourcePoint" />
            <mxPoint x="325" y="230" as="targetPoint" />
          </mxGeometry>
        </mxCell>
        <mxCell id="4nz0dGqZHAHuWgcf-8ju-6" value="LLM" style="verticalLabelPosition=middle;verticalAlign=middle;html=1;shape=trapezoid;perimeter=trapezoidPerimeter;whiteSpace=wrap;size=0.23;arcSize=10;flipV=1;labelPosition=center;align=center;fillColor=#67AB9F;strokeColor=#82b366;" vertex="1" parent="1">
          <mxGeometry x="257.5" y="280" width="135" height="40" as="geometry" />
        </mxCell>
        <mxCell id="4nz0dGqZHAHuWgcf-8ju-7" value="You are RS&amp;nbsp;&lt;div&gt;Do recommendation task&lt;/div&gt;" style="text;html=1;align=center;verticalAlign=middle;whiteSpace=wrap;rounded=0;" vertex="1" parent="1">
          <mxGeometry x="180" y="200" width="155" height="40" as="geometry" />
        </mxCell>
        <mxCell id="4nz0dGqZHAHuWgcf-8ju-9" value="" style="endArrow=classic;html=1;rounded=0;exitX=0.5;exitY=1;exitDx=0;exitDy=0;entryX=0.5;entryY=0;entryDx=0;entryDy=0;" edge="1" parent="1" source="4nz0dGqZHAHuWgcf-8ju-6" target="4nz0dGqZHAHuWgcf-8ju-10">
          <mxGeometry width="50" height="50" relative="1" as="geometry">
            <mxPoint x="330" y="430" as="sourcePoint" />
            <mxPoint x="380" y="380" as="targetPoint" />
          </mxGeometry>
        </mxCell>
        <mxCell id="4nz0dGqZHAHuWgcf-8ju-10" value="Result" style="rounded=1;whiteSpace=wrap;html=1;fillColor=#dae8fc;strokeColor=#6c8ebf;" vertex="1" parent="1">
          <mxGeometry x="272.5" y="340" width="105" height="50" as="geometry" />
        </mxCell>
        <mxCell id="4nz0dGqZHAHuWgcf-8ju-12" value="LLM as RS" style="rounded=1;whiteSpace=wrap;html=1;fillColor=#d5e8d4;strokeColor=#82b366;" vertex="1" parent="1">
          <mxGeometry x="172.5" y="50" width="100" height="30" as="geometry" />
        </mxCell>
        <mxCell id="4nz0dGqZHAHuWgcf-8ju-14" value="" style="rounded=1;whiteSpace=wrap;html=1;fillColor=#f9f7ed;strokeColor=#36393d;" vertex="1" parent="1">
          <mxGeometry x="620" y="60" width="290" height="350" as="geometry" />
        </mxCell>
        <mxCell id="4nz0dGqZHAHuWgcf-8ju-15" value="RAG" style="rounded=1;whiteSpace=wrap;html=1;fillColor=#d5e8d4;strokeColor=#82b366;" vertex="1" parent="1">
          <mxGeometry x="660" y="50" width="40" height="30" as="geometry" />
        </mxCell>
        <mxCell id="4nz0dGqZHAHuWgcf-8ju-16" value="" style="endArrow=classic;html=1;rounded=0;exitX=1;exitY=0.5;exitDx=0;exitDy=0;entryX=0;entryY=0.5;entryDx=0;entryDy=0;" edge="1" parent="1" source="4nz0dGqZHAHuWgcf-8ju-2" target="4nz0dGqZHAHuWgcf-8ju-17">
          <mxGeometry width="50" height="50" relative="1" as="geometry">
            <mxPoint x="150" y="500" as="sourcePoint" />
            <mxPoint x="200" y="450" as="targetPoint" />
            <Array as="points">
              <mxPoint x="550" y="170" />
              <mxPoint x="550" y="115" />
            </Array>
          </mxGeometry>
        </mxCell>
        <mxCell id="4nz0dGqZHAHuWgcf-8ju-36" style="edgeStyle=orthogonalEdgeStyle;rounded=0;orthogonalLoop=1;jettySize=auto;html=1;exitX=0.5;exitY=1;exitDx=0;exitDy=0;entryX=0.5;entryY=0;entryDx=0;entryDy=0;" edge="1" parent="1" source="4nz0dGqZHAHuWgcf-8ju-17" target="4nz0dGqZHAHuWgcf-8ju-18">
          <mxGeometry relative="1" as="geometry" />
        </mxCell>
        <mxCell id="4nz0dGqZHAHuWgcf-8ju-17" value="QUERY" style="rounded=1;whiteSpace=wrap;html=1;" vertex="1" parent="1">
          <mxGeometry x="650" y="100" width="100" height="30" as="geometry" />
        </mxCell>
        <mxCell id="4nz0dGqZHAHuWgcf-8ju-39" style="edgeStyle=orthogonalEdgeStyle;rounded=0;orthogonalLoop=1;jettySize=auto;html=1;exitX=0.5;exitY=1;exitDx=0;exitDy=0;entryX=0.25;entryY=0;entryDx=0;entryDy=0;" edge="1" parent="1" source="4nz0dGqZHAHuWgcf-8ju-18" target="4nz0dGqZHAHuWgcf-8ju-30">
          <mxGeometry relative="1" as="geometry" />
        </mxCell>
        <mxCell id="4nz0dGqZHAHuWgcf-8ju-18" value="Retrieve related&amp;nbsp;&lt;div&gt;Data&lt;/div&gt;" style="rounded=1;whiteSpace=wrap;html=1;" vertex="1" parent="1">
          <mxGeometry x="640" y="170" width="120" height="30" as="geometry" />
        </mxCell>
        <mxCell id="4nz0dGqZHAHuWgcf-8ju-38" style="edgeStyle=orthogonalEdgeStyle;rounded=0;orthogonalLoop=1;jettySize=auto;html=1;exitX=0.5;exitY=1;exitDx=0;exitDy=0;entryX=0.5;entryY=0;entryDx=0;entryDy=0;" edge="1" parent="1" source="4nz0dGqZHAHuWgcf-8ju-29" target="4nz0dGqZHAHuWgcf-8ju-37">
          <mxGeometry relative="1" as="geometry" />
        </mxCell>
        <mxCell id="4nz0dGqZHAHuWgcf-8ju-29" value="CHUNK" style="rounded=1;whiteSpace=wrap;html=1;" vertex="1" parent="1">
          <mxGeometry x="780" y="100" width="100" height="30" as="geometry" />
        </mxCell>
        <mxCell id="4nz0dGqZHAHuWgcf-8ju-34" style="edgeStyle=orthogonalEdgeStyle;rounded=0;orthogonalLoop=1;jettySize=auto;html=1;exitX=0.5;exitY=1;exitDx=0;exitDy=0;entryX=0.5;entryY=0;entryDx=0;entryDy=0;" edge="1" parent="1" source="4nz0dGqZHAHuWgcf-8ju-30" target="4nz0dGqZHAHuWgcf-8ju-33">
          <mxGeometry relative="1" as="geometry" />
        </mxCell>
        <mxCell id="4nz0dGqZHAHuWgcf-8ju-30" value="&lt;font style=&quot;font-size: 18px;&quot;&gt;Retriever&lt;/font&gt;" style="rounded=0;whiteSpace=wrap;html=1;" vertex="1" parent="1">
          <mxGeometry x="670" y="230" width="190" height="50" as="geometry" />
        </mxCell>
        <mxCell id="4nz0dGqZHAHuWgcf-8ju-35" style="edgeStyle=orthogonalEdgeStyle;rounded=0;orthogonalLoop=1;jettySize=auto;html=1;exitX=0;exitY=0.5;exitDx=0;exitDy=0;entryX=1;entryY=0.5;entryDx=0;entryDy=0;" edge="1" parent="1" source="4nz0dGqZHAHuWgcf-8ju-33" target="4nz0dGqZHAHuWgcf-8ju-6">
          <mxGeometry relative="1" as="geometry" />
        </mxCell>
        <mxCell id="4nz0dGqZHAHuWgcf-8ju-33" value="&lt;font style=&quot;font-size: 14px;&quot;&gt;Related Information&lt;/font&gt;&lt;div&gt;&lt;font style=&quot;font-size: 14px;&quot;&gt;from Other User&lt;/font&gt;&lt;/div&gt;" style="rounded=0;whiteSpace=wrap;html=1;" vertex="1" parent="1">
          <mxGeometry x="670" y="320" width="190" height="60" as="geometry" />
        </mxCell>
        <mxCell id="4nz0dGqZHAHuWgcf-8ju-40" style="edgeStyle=orthogonalEdgeStyle;rounded=0;orthogonalLoop=1;jettySize=auto;html=1;exitX=0.5;exitY=1;exitDx=0;exitDy=0;entryX=0.75;entryY=0;entryDx=0;entryDy=0;" edge="1" parent="1" source="4nz0dGqZHAHuWgcf-8ju-37" target="4nz0dGqZHAHuWgcf-8ju-30">
          <mxGeometry relative="1" as="geometry" />
        </mxCell>
        <mxCell id="4nz0dGqZHAHuWgcf-8ju-37" value="Other User&#39;s&amp;nbsp;&lt;div&gt;History or Profile&lt;/div&gt;" style="rounded=1;whiteSpace=wrap;html=1;" vertex="1" parent="1">
          <mxGeometry x="770" y="170" width="120" height="30" as="geometry" />
        </mxCell>
      </root>
    </mxGraphModel>
  </diagram>
</mxfile>
